<?xml version="1.0" encoding="UTF-8"?>
<!DOCTYPE svg PUBLIC "-//W3C//DTD SVG 1.1//EN" "http://www.w3.org/Graphics/SVG/1.1/DTD/svg11.dtd">
<!-- Creator: CorelDRAW 2018 (64-Bit) -->
<svg xmlns="http://www.w3.org/2000/svg" xml:space="preserve" width="200px" height="200px" version="1.1" style="shape-rendering:geometricPrecision; text-rendering:geometricPrecision; image-rendering:optimizeQuality; fill-rule:evenodd; clip-rule:evenodd"
viewBox="0 0 6.32 6.32"
 xmlns:xlink="http://www.w3.org/1999/xlink">
 <defs>
  <style type="text/css">
   <![CDATA[
    .fil0 {fill:none}
    .fil2 {fill:#FF503A}
    .fil1 {fill:#FF503A;fill-rule:nonzero}
   ]]>
  </style>
 </defs>
 <g id="Layer_x0020_1">
  <metadata id="CorelCorpID_0Corel-Layer"/>
  <g id="_1753134965616">
   <rect class="fil0" width="6.32" height="6.32"/>
   <path class="fil1" d="M1.74 0.39l2.84 0c0.74,0 1.34,0.61 1.34,1.35l0 2.84c0,0.74 -0.6,1.34 -1.34,1.34l-2.84 0c-0.74,0 -1.35,-0.6 -1.35,-1.34l0 -2.84c0,-0.74 0.61,-1.35 1.35,-1.35zm2.84 0.79l-2.84 0c-0.31,0 -0.56,0.25 -0.56,0.56l0 2.84c0,0.31 0.25,0.55 0.56,0.55l2.84 0c0.31,0 0.55,-0.24 0.55,-0.55l0 -2.84c0,-0.31 -0.24,-0.56 -0.55,-0.56z"/>
   <circle class="fil2" cx="2.34" cy="2.34" r="0.47"/>
   <circle class="fil2" transform="matrix(2.59452E-14 0.979636 -0.979636 2.59452E-14 3.97696 2.34017)" r="0.48"/>
   <circle class="fil2" cx="3.98" cy="3.98" r="0.47"/>
   <circle class="fil2" transform="matrix(2.59452E-14 0.979636 -0.979636 2.59452E-14 2.34021 3.97692)" r="0.48"/>
  </g>
 </g>
</svg>
